<svg width="43" height="33" viewBox="0 0 43 33" fill="none" xmlns="http://www.w3.org/2000/svg">
<path d="M39.2281 2.43658H3.29629C2.58037 2.43658 2 3.22445 2 4.19634V28.6902C2 29.6621 2.58037 30.45 3.29629 30.45H39.2281C39.944 30.45 40.5244 29.6621 40.5244 28.6902V4.19634C40.5244 3.22445 39.944 2.43658 39.2281 2.43658Z" stroke="#F0EDED" stroke-opacity="0.9" stroke-width="4" stroke-miterlimit="10" stroke-linecap="round"/>
<path d="M20.8067 19.159L3.32428 4.45317C3.17757 4.32635 3.06502 4.13849 3.00346 3.91766C2.9419 3.69683 2.93462 3.45489 2.98271 3.22798C3.03081 3.00107 3.13169 2.80138 3.2703 2.65874C3.4089 2.5161 3.57778 2.43816 3.7517 2.43658H38.7165C38.8905 2.43816 39.0594 2.5161 39.198 2.65874C39.3366 2.80138 39.4374 3.00107 39.4855 3.22798C39.5336 3.45489 39.5264 3.69683 39.4648 3.91766C39.4032 4.13849 39.2907 4.32635 39.144 4.45317L21.6265 19.159C21.5024 19.2586 21.3608 19.3111 21.2166 19.3111C21.0724 19.3111 20.9308 19.2586 20.8067 19.159V19.159Z" stroke="#F0EDED" stroke-opacity="0.9" stroke-width="4" stroke-miterlimit="10" stroke-linecap="round"/>
</svg>
