<svg width="39" height="40" viewBox="0 0 39 40" fill="none" xmlns="http://www.w3.org/2000/svg">
<path d="M36.4931 19.4977L4.20455 3.09835C4.05677 3.0158 3.88901 2.97262 3.71836 2.97318C3.54771 2.97375 3.38027 3.01804 3.23308 3.10156C3.08589 3.18508 2.96421 3.30484 2.88044 3.44864C2.79667 3.59244 2.7538 3.75514 2.7562 3.92018V36.7282C2.7538 36.8933 2.79667 37.056 2.88044 37.1998C2.96421 37.3436 3.08589 37.4633 3.23308 37.5468C3.38027 37.6304 3.54771 37.6747 3.71836 37.6752C3.88901 37.6758 4.05677 37.6326 4.20455 37.5501L36.4931 21.1414C36.6463 21.0613 36.7744 20.9427 36.8636 20.798C36.9529 20.6533 37 20.488 37 20.3195C37 20.1511 36.9529 19.9857 36.8636 19.841C36.7744 19.6964 36.6463 19.5777 36.4931 19.4977V19.4977Z" stroke="#F0EDED" stroke-opacity="0.9" stroke-width="4" stroke-linecap="round" stroke-linejoin="round"/>
</svg>
