<svg width="43" height="40" viewBox="0 0 43 40" fill="none" xmlns="http://www.w3.org/2000/svg">
<path d="M39.0783 9.84265H3.92167C2.86036 9.84265 2 10.7616 2 11.8953V35.8725C2 37.0061 2.86036 37.9251 3.92167 37.9251H39.0783C40.1396 37.9251 41 37.0061 41 35.8725V11.8953C41 10.7616 40.1396 9.84265 39.0783 9.84265Z" stroke="#F0EDED" stroke-opacity="0.9" stroke-width="4" stroke-linecap="round" stroke-linejoin="round"/>
<path d="M2 20.3838H41" stroke="#F0EDED" stroke-opacity="0.9" stroke-width="4" stroke-linecap="round" stroke-linejoin="round"/>
<path d="M22.3805 15.976H20.6196C18.4039 15.976 16.6078 17.8945 16.6078 20.2611V22.142C16.6078 24.5086 18.4039 26.4272 20.6196 26.4272H22.3805C24.5961 26.4272 26.3922 24.5086 26.3922 22.142V20.2611C26.3922 17.8945 24.5961 15.976 22.3805 15.976Z" stroke="#F0EDED" stroke-opacity="0.9" stroke-width="4" stroke-linecap="round" stroke-linejoin="round"/>
<path d="M26.2238 2.94879H16.7762C16.0658 2.94879 15.49 3.56389 15.49 4.32266V8.46879C15.49 9.22755 16.0658 9.84266 16.7762 9.84266H26.2238C26.9342 9.84266 27.51 9.22755 27.51 8.46879V4.32266C27.51 3.56389 26.9342 2.94879 26.2238 2.94879Z" stroke="#F0EDED" stroke-opacity="0.9" stroke-width="4" stroke-linecap="round" stroke-linejoin="round"/>
</svg>
