<svg width="39" height="49" viewBox="0 0 39 49" fill="none" xmlns="http://www.w3.org/2000/svg">
<path d="M2.90247 40.4193V4.68444C2.90891 4.4056 2.97378 4.13068 3.09338 3.87539C3.21298 3.62011 3.38497 3.38945 3.59951 3.19661C3.81404 3.00377 4.06693 2.85251 4.34373 2.75149C4.62052 2.65046 4.9158 2.60165 5.21269 2.60784H33.8849C34.1818 2.60165 34.4771 2.65046 34.7539 2.75149C35.0307 2.85251 35.2836 3.00377 35.4981 3.19661C35.7126 3.38945 35.8846 3.62011 36.0042 3.87539C36.1238 4.13068 36.1887 4.4056 36.1951 4.68444V44.2863C36.1887 44.5651 36.1238 44.84 36.0042 45.0953C35.8846 45.3506 35.7126 45.5813 35.4981 45.7741C35.2836 45.967 35.0307 46.1182 34.7539 46.2192C34.4771 46.3203 34.1818 46.3691 33.8849 46.3629H9.89691" stroke="#F0EDED" stroke-opacity="0.9" stroke-width="4" stroke-miterlimit="10" stroke-linecap="round"/>
<path d="M19.1214 14.2297C21.0606 14.2297 22.6327 12.6845 22.6327 10.7784C22.6327 8.87231 21.0606 7.32713 19.1214 7.32713C17.1822 7.32713 15.6101 8.87231 15.6101 10.7784C15.6101 12.6845 17.1822 14.2297 19.1214 14.2297Z" stroke="#F0EDED" stroke-opacity="0.9" stroke-width="4" stroke-miterlimit="10" stroke-linecap="round"/>
<path d="M22.7089 15.9178C24.9073 17.4184 26.4644 19.8718 26.4644 21.5299C26.4644 23.9908 23.0066 23.6682 19.1594 23.6682C15.3123 23.6682 11.7781 23.9908 11.7781 21.5299C11.7781 19.8568 13.404 17.3358 15.6481 15.8803" stroke="#F0EDED" stroke-opacity="0.9" stroke-width="4" stroke-miterlimit="10" stroke-linecap="round"/>
<path d="M8.58752 29.948H29.3728" stroke="#F0EDED" stroke-opacity="0.9" stroke-width="4" stroke-miterlimit="10" stroke-linecap="round"/>
<path d="M25.3577 37.0981H29.327" stroke="#F0EDED" stroke-opacity="0.9" stroke-width="4" stroke-miterlimit="10" stroke-linecap="round"/>
<path d="M8.53406 37.0981H21.5869" stroke="#F0EDED" stroke-opacity="0.9" stroke-width="4" stroke-miterlimit="10" stroke-linecap="round"/>
</svg>
