<svg width="50" height="43" viewBox="0 0 50 43" fill="none" xmlns="http://www.w3.org/2000/svg">
<path d="M48.5668 0.941776C48.0053 0.472347 47.326 0.16393 46.6018 0.0496141C45.8775 -0.0647014 45.1357 0.0193995 44.4558 0.292893L2.9659 16.8214C2.3611 17.0714 1.84428 17.4942 1.48071 18.0364C1.11713 18.5785 0.923096 19.2157 0.923096 19.8675C0.923096 20.5193 1.11713 21.1566 1.48071 21.6987C1.84428 22.2408 2.3611 22.6636 2.9659 22.9137L5.64618 24.0132C6.0881 24.1992 6.58615 24.2031 7.03096 24.024C7.47577 23.8449 7.83098 23.4974 8.01858 23.0579C8.11062 22.839 8.15832 22.6042 8.15896 22.3669C8.1596 22.1296 8.11315 21.8945 8.02229 21.6751C7.93143 21.4558 7.79795 21.2564 7.62949 21.0885C7.46104 20.9206 7.26093 20.7874 7.04065 20.6967L5.04855 19.8856L45.8141 3.66348C45.8767 3.62523 45.9488 3.60499 46.0223 3.60499C46.0958 3.60499 46.1679 3.62523 46.2306 3.66348C46.2897 3.71343 46.3343 3.77822 46.3598 3.85111C46.3853 3.92401 46.3907 4.00236 46.3755 4.07804L38.9323 38.6491C38.9079 38.7722 38.8516 38.8869 38.769 38.9817C38.6864 39.0765 38.5804 39.1483 38.4614 39.1898C38.3447 39.2359 38.2177 39.2502 38.0935 39.2312C37.9694 39.2122 37.8526 39.1606 37.7551 39.0817L23.2672 27.8344L37.4473 13.577C37.7502 13.2642 37.9294 12.853 37.9519 12.4192C37.9745 11.9853 37.8388 11.5579 37.5699 11.2157C37.301 10.8735 36.917 10.6395 36.4885 10.5567C36.06 10.4739 35.6159 10.5479 35.2379 10.7651L14.4476 23.0218C14.2167 23.1257 14.0103 23.2766 13.8416 23.4649C13.673 23.6531 13.546 23.8745 13.4687 24.1147C13.3914 24.3549 13.3657 24.6086 13.3931 24.8593C13.4205 25.11 13.5005 25.3522 13.6278 25.5703C13.7552 25.7883 13.9271 25.9773 14.1325 26.1251C14.3378 26.2728 14.5721 26.376 14.82 26.428C15.068 26.48 15.3241 26.4797 15.5719 26.427C15.8197 26.3743 16.0537 26.2704 16.2586 26.122L25.0057 20.985L20.7499 25.2929C20.3605 25.657 20.057 26.1023 19.8609 26.5969C19.6648 27.0915 19.581 27.6231 19.6156 28.1537C19.6503 28.6843 19.8024 29.2007 20.0611 29.6659C20.3198 30.1311 20.6787 30.5335 21.1121 30.8445L35.6001 41.9295C36.3626 42.5152 37.299 42.8323 38.2622 42.8308C38.7751 42.8271 39.2836 42.7356 39.7653 42.5604C40.4571 42.3132 41.0736 41.8934 41.5556 41.341C42.0376 40.7887 42.369 40.1225 42.5181 39.4061L49.9069 4.87112C50.0638 4.15679 50.0219 3.41341 49.7857 2.72102C49.5496 2.02863 49.1281 1.41347 48.5668 0.941776Z" fill="#461F4C"/>
</svg>
